<svg width="35" height="35" viewBox="0 0 35 35" fill="none" xmlns="http://www.w3.org/2000/svg">
<path d="M24.7917 29.8958H10.2083C5.83333 29.8958 2.91667 27.7083 2.91667 22.6041V12.3958C2.91667 7.29163 5.83333 5.10413 10.2083 5.10413H24.7917C29.1667 5.10413 32.0833 7.29163 32.0833 12.3958V22.6041C32.0833 27.7083 29.1667 29.8958 24.7917 29.8958Z" stroke="#007FFE" stroke-width="1.5" stroke-miterlimit="10" stroke-linecap="round" stroke-linejoin="round"/>
<path d="M17.5 21.875C19.9162 21.875 21.875 19.9162 21.875 17.5C21.875 15.0838 19.9162 13.125 17.5 13.125C15.0838 13.125 13.125 15.0838 13.125 17.5C13.125 19.9162 15.0838 21.875 17.5 21.875Z" stroke="#007FFE" stroke-width="1.5" stroke-miterlimit="10" stroke-linecap="round" stroke-linejoin="round"/>
<path d="M8.02083 13.8541V21.1458" stroke="#007FFE" stroke-width="1.5" stroke-miterlimit="10" stroke-linecap="round" stroke-linejoin="round"/>
<path d="M26.9792 13.8541V21.1458" stroke="#007FFE" stroke-width="1.5" stroke-miterlimit="10" stroke-linecap="round" stroke-linejoin="round"/>
</svg>
