<svg width="35" height="35" viewBox="0 0 35 35" fill="none" xmlns="http://www.w3.org/2000/svg">
<path d="M13.3583 15.852C13.2125 15.8375 13.0375 15.8375 12.8771 15.852C9.40624 15.7354 6.64999 12.8916 6.64999 9.39163C6.64999 5.81871 9.53749 2.91663 13.125 2.91663C16.6979 2.91663 19.6 5.81871 19.6 9.39163C19.5854 12.8916 16.8292 15.7354 13.3583 15.852Z" stroke="#007FFE" stroke-width="1.5" stroke-linecap="round" stroke-linejoin="round"/>
<path d="M23.9313 5.83337C26.7604 5.83337 29.0354 8.12296 29.0354 10.9375C29.0354 13.6938 26.8479 15.9396 24.1208 16.0417C24.0042 16.0271 23.8729 16.0271 23.7417 16.0417" stroke="#007FFE" stroke-width="1.5" stroke-linecap="round" stroke-linejoin="round"/>
<path d="M6.06667 21.2334C2.53751 23.5959 2.53751 27.4459 6.06667 29.7938C10.0771 32.4771 16.6542 32.4771 20.6646 29.7938C24.1938 27.4313 24.1938 23.5813 20.6646 21.2334C16.6688 18.5646 10.0917 18.5646 6.06667 21.2334Z" stroke="#007FFE" stroke-width="1.5" stroke-linecap="round" stroke-linejoin="round"/>
<path d="M26.7458 29.1666C27.7958 28.9479 28.7875 28.525 29.6042 27.8979C31.8792 26.1916 31.8792 23.377 29.6042 21.6708C28.8021 21.0583 27.825 20.65 26.7896 20.4166" stroke="#007FFE" stroke-width="1.5" stroke-linecap="round" stroke-linejoin="round"/>
</svg>
