<svg width="35" height="35" viewBox="0 0 35 35" fill="none" xmlns="http://www.w3.org/2000/svg">
<path d="M4.38958 16.3625V22.9105C4.38958 29.4584 7.01458 32.0834 13.5625 32.0834H21.4229C27.9708 32.0834 30.5958 29.4584 30.5958 22.9105V16.3625" stroke="#007FFE" stroke-width="1.5" stroke-linecap="round" stroke-linejoin="round"/>
<path d="M17.5 17.5C20.1688 17.5 22.1375 15.327 21.875 12.6583L20.9125 2.91663H14.1021L13.125 12.6583C12.8625 15.327 14.8312 17.5 17.5 17.5Z" stroke="#007FFE" stroke-width="1.5" stroke-linecap="round" stroke-linejoin="round"/>
<path d="M26.7021 17.5C29.6479 17.5 31.8062 15.1083 31.5146 12.177L31.1062 8.16663C30.5812 4.37496 29.1229 2.91663 25.3021 2.91663H20.8542L21.875 13.1395C22.1229 15.5458 24.2958 17.5 26.7021 17.5Z" stroke="#007FFE" stroke-width="1.5" stroke-linecap="round" stroke-linejoin="round"/>
<path d="M8.225 17.5C10.6313 17.5 12.8042 15.5458 13.0375 13.1395L13.3583 9.91663L14.0583 2.91663H9.61042C5.78958 2.91663 4.33125 4.37496 3.80625 8.16663L3.4125 12.177C3.12083 15.1083 5.27917 17.5 8.225 17.5Z" stroke="#007FFE" stroke-width="1.5" stroke-linecap="round" stroke-linejoin="round"/>
<path d="M17.5 24.7916C15.0646 24.7916 13.8542 26.002 13.8542 28.4375V32.0833H21.1458V28.4375C21.1458 26.002 19.9354 24.7916 17.5 24.7916Z" stroke="#007FFE" stroke-width="1.5" stroke-linecap="round" stroke-linejoin="round"/>
</svg>
