<svg width="35" height="35" viewBox="0 0 35 35" fill="none" xmlns="http://www.w3.org/2000/svg">
<path d="M6.92709 20.3729C6.72293 22.75 8.60417 24.7917 10.9958 24.7917H26.5271C28.6271 24.7917 30.4646 23.0709 30.625 20.9854L31.4125 10.0479C31.5875 7.6271 29.75 5.65834 27.3146 5.65834H8.48752" stroke="#007FFE" stroke-width="1.5" stroke-miterlimit="10" stroke-linecap="round" stroke-linejoin="round"/>
<path d="M2.91666 2.91667H5.45417C7.02917 2.91667 8.26875 4.27292 8.1375 5.83333L7.40833 14.6562" stroke="#007FFE" stroke-width="1.5" stroke-miterlimit="10" stroke-linecap="round" stroke-linejoin="round"/>
<path d="M23.6979 32.0833C24.7047 32.0833 25.5208 31.2672 25.5208 30.2604C25.5208 29.2536 24.7047 28.4375 23.6979 28.4375C22.6911 28.4375 21.875 29.2536 21.875 30.2604C21.875 31.2672 22.6911 32.0833 23.6979 32.0833Z" stroke="#007FFE" stroke-width="1.5" stroke-miterlimit="10" stroke-linecap="round" stroke-linejoin="round"/>
<path d="M12.0313 32.0833C13.038 32.0833 13.8542 31.2672 13.8542 30.2604C13.8542 29.2536 13.038 28.4375 12.0313 28.4375C11.0245 28.4375 10.2083 29.2536 10.2083 30.2604C10.2083 31.2672 11.0245 32.0833 12.0313 32.0833Z" stroke="#007FFE" stroke-width="1.5" stroke-miterlimit="10" stroke-linecap="round" stroke-linejoin="round"/>
<path d="M13.125 11.6667H30.625" stroke="#007FFE" stroke-width="1.5" stroke-miterlimit="10" stroke-linecap="round" stroke-linejoin="round"/>
</svg>
