<svg width="12" height="12" viewBox="0 0 12 12" fill="none" xmlns="http://www.w3.org/2000/svg">
<path d="M6.40518 0.251139L7.75125 3.3213C7.85426 3.55631 8.07727 3.71732 8.33328 3.74032L11.6125 4.03434C11.9835 4.08834 12.1315 4.54337 11.8625 4.80538L9.39234 6.88049C9.19233 7.0485 9.10132 7.31251 9.15633 7.56753L9.87436 10.9287C9.93737 11.2977 9.55035 11.5797 9.21833 11.4047L6.35618 9.72864C6.13617 9.59964 5.86415 9.59964 5.64414 9.72864L2.78199 11.4037C2.45097 11.5777 2.06295 11.2967 2.12595 10.9277L2.84399 7.56653C2.89799 7.31151 2.80799 7.0475 2.60798 6.87949L0.136846 4.80638C-0.131169 4.54537 0.0168393 4.08934 0.386859 4.03534L3.66603 3.74132C3.92205 3.71832 4.14506 3.55731 4.24806 3.3223L5.59414 0.252139C5.76115 -0.0838793 6.23917 -0.0838793 6.40518 0.251139Z" fill="#FDD835"/>
<path d="M6.30695 3.50526L6.07894 1.24314C6.06994 1.11713 6.04394 0.901123 6.24595 0.901123C6.40596 0.901123 6.49296 1.23414 6.49296 1.23414L7.177 3.05024C7.43501 3.74127 7.32901 3.97829 7.07999 4.11829C6.79398 4.2783 6.37196 4.1533 6.30695 3.50526Z" fill="#FFFF8D"/>
<path d="M9.12817 6.67935L11.0903 5.14826C11.1873 5.06726 11.3623 4.93825 11.2223 4.79125C11.1113 4.67524 10.8113 4.84225 10.8113 4.84225L9.09417 5.51328C8.58215 5.69029 8.24213 5.95231 8.21213 6.28232C8.17312 6.72235 8.56814 7.06137 9.12817 6.67935Z" fill="#F4B400"/>
</svg>
