<svg width="16" height="16" viewBox="0 0 16 16" fill="none" xmlns="http://www.w3.org/2000/svg">
<path d="M11.72 5.952H4.28C4.216 5.952 4.16 5.952 4.096 5.952V5.024C4.096 2.68 4.76 1.12 8 1.12C11.464 1.12 11.904 2.808 11.904 4.28C11.904 4.592 12.152 4.84 12.464 4.84C12.776 4.84 13.024 4.592 13.024 4.28C13.024 1.44 11.336 0 8 0C3.496 0 2.976 2.864 2.976 5.024V6.024C0.736 6.304 0 7.44 0 10.232V11.72C0 15 1 16 4.28 16H11.72C15 16 16 15 16 11.72V10.232C16 6.952 15 5.952 11.72 5.952ZM8 13.392C6.664 13.392 5.584 12.304 5.584 10.976C5.584 9.64 6.672 8.56 8 8.56C9.328 8.56 10.416 9.648 10.416 10.976C10.416 12.312 9.336 13.392 8 13.392Z" fill="#292D32"/>
</svg>
