<svg width="24" height="19" viewBox="0 0 24 19" fill="none" xmlns="http://www.w3.org/2000/svg">
<path d="M23.6507 3.20465C23.5397 3.10342 23.4076 3.02314 23.262 2.96849C23.1163 2.91384 22.9601 2.8859 22.8025 2.8863H21.9556V1.08236C21.9552 0.795401 21.8289 0.520285 21.6044 0.317373C21.3799 0.11446 21.0755 0.000322288 20.758 0H3.52422C2.58954 1.19605e-05 1.69315 0.335595 1.03223 0.932927C0.371318 1.53026 1.32337e-05 2.34041 0 3.18517V15.5758C1.32337e-05 16.4205 0.371318 17.2307 1.03223 17.828C1.69315 18.4254 2.58954 18.7609 3.52422 18.7609H22.7553C23.0721 18.7604 23.3757 18.6467 23.6001 18.4445C23.8244 18.2424 23.9512 17.9683 23.9529 17.6821L24 3.97236C24.001 3.82986 23.9706 3.68861 23.9106 3.55681C23.8507 3.42501 23.7623 3.30531 23.6507 3.20465ZM22.3574 17.3178H3.52422C3.01303 17.3178 2.52277 17.1343 2.16131 16.8076C1.79984 16.4809 1.59677 16.0378 1.59677 15.5758V3.18517C1.59677 2.72316 1.79984 2.28007 2.16131 1.95337C2.52277 1.62668 3.01303 1.44315 3.52422 1.44315H20.3588V2.8863H3.59273V4.32945H22.402L22.3574 17.3178Z" fill="black"/>
<path d="M20.3587 9.74127H18.762V11.1844H20.3587V9.74127Z" fill="black"/>
</svg>
